<svg id="Group_282" data-name="Group 282" xmlns="http://www.w3.org/2000/svg" width="260.672" height="69.699" viewBox="0 0 260.672 69.699">
  <g id="Group_106" data-name="Group 106" transform="translate(0 0)">
    <path id="Path_674" data-name="Path 674" d="M246.018,160.345l-27.743,16.021v32.028l27.742,16.024L273.757,208.4V176.362Zm76.567,14.634h9.1V178.1h-5.694v12.585h2.835v3.4h-2.835v12.706h5.694v3.1h-9.1Zm-10.751,3.112v28.693h3.394V178.091Zm-3.406-3.112h10.207v34.9H308.428Zm-10.76,3.112v24.531h3.323V178.091Zm-3.407-3.112H304.4v30.74h-6.729v4.162h-3.407Zm-13.717,0h9.695v34.9h-3.406V178.112H283.95V209.88h-3.406Zm66.895,0h11.3v3.114h-3.946V209.88h-3.406V178.093h-3.946Zm-9.092,16.339,3.187-16.339h3.413l-3.363,17.237,3.5,17.665h-3.412l-3.33-16.783V209.88H334.94v-34.9h3.406Zm-68.172-12.874v27.874l-24.158,13.939h0v-8.405l16.845-9.735V182.644l7.31-4.2ZM252.066,188.89v6.979l-6.049,3.491,0-6.989ZM276.2,209.809l-30.183,17.42-30.184-17.436V174.958l30.183-17.427,30.183,17.42Z" transform="translate(-98.064 -157.531)" fill="#613833"/>
    <path id="Path_675" data-name="Path 675" d="M239.223,188.028l6.048-3.491,6.049,3.491-6.049,3.476Zm-18.108-10.447,24.156-13.939,24.156,13.938-7.31,4.2-16.846-9.734-16.846,9.734Z" transform="translate(-97.319 -156.669)" fill="#75c4f0"/>
    <path id="Path_676" data-name="Path 676" d="M155.616,172.826h12.1v3.116h-4.345v31.786h-3.406V175.942h-4.347Zm-14.126,27.71h2.491V175.944H141.49Zm5.845-24.592v24.592h2.491V175.944Zm-9.24,27.671V172.826H153.2v30.789h-5.7v4.111h-3.687v-4.111Zm-11.811-30.789h9.1v3.1h-5.693v12.606h2.835v3.4h-2.835v12.706h5.693v3.1h-9.1Zm-13.656,0h3.406v15.735h2.953V172.826H122.4v34.9h-3.407V191.9h-2.953v15.833h-3.406Zm75.37,9.7-1.862-9.7h-3.413l3.362,17.237-3.5,17.666h3.412l2-10.108,2.006,10.108h3.412l-3.5-17.667,3.362-17.235h-3.412Zm31.091,18.188-.014-.057-.015.057V200.6l-3.314-15.782v22.9h-3.406v-34.9h3.418l3.317,15.921,3.316-15.921h3.419v34.9H222.4v-22.9L219.09,200.6Zm-14.569-27.891h3.406v34.9h-3.406V187.9l-3.955,19.832H197.16v-34.9h3.406v20.287Zm-34.19,0h9.1v3.116h-5.694v12.585h2.835v3.4h-2.835v12.706h5.694v3.1h-9.1Zm90.25,45.272-24.156-13.939V176.285l7.31,4.2-.1,19.533,16.95,9.674h0Zm0-20.9q-3.024-1.746-6.048-3.491v-6.979l6.047,3.479Z" transform="translate(-112.629 -155.373)" fill="#b8663d"/>
    <path id="Path_678" data-name="Path 678" d="M349.067,210.985v1.657h.406a.622.622,0,0,0,.519-.232.967.967,0,0,0,.18-.608.9.9,0,0,0-.192-.574.6.6,0,0,0-.494-.243Zm-.515,2.1v-4.207h.515v1.665h.479a1.089,1.089,0,0,1,.828.38,1.257,1.257,0,0,1,.35.88,1.355,1.355,0,0,1-.321.907,1.024,1.024,0,0,1-.814.375Zm-5.2,0V208.87h.516v1.739h1.267V208.87h.516v4.214h-.516v-2.033h-1.267v2.033Zm-3.4-.87v-1.488a3.361,3.361,0,0,0-.81.537,1.164,1.164,0,0,0-.456.825.657.657,0,0,0,.139.468.521.521,0,0,0,.391.144.83.83,0,0,0,.438-.129A.708.708,0,0,0,339.954,212.215Zm.516-2.247v3.116h-.516V212.7a1.007,1.007,0,0,1-.361.328.924.924,0,0,1-.443.114,1,1,0,0,1-.691-.258.942.942,0,0,1-.317-.729,1.422,1.422,0,0,1,.671-1.222q.567-.354,1.141-.708,0-.972-.574-.972a.568.568,0,0,0-.446.235.905.905,0,0,0-.2.6l-.486-.081a1.426,1.426,0,0,1,.38-.858,1.033,1.033,0,0,1,.776-.336.989.989,0,0,1,.755.329A1.163,1.163,0,0,1,340.47,209.968Zm-7.286,1.857.479-.059a1.336,1.336,0,0,0,.126.6.533.533,0,0,0,.493.332.478.478,0,0,0,.458-.273,1.454,1.454,0,0,0,.117-.648.817.817,0,0,0-.14-.494.57.57,0,0,0-.486-.228h-.361v-.442h.361a.461.461,0,0,0,.42-.2.92.92,0,0,0,.126-.5.938.938,0,0,0-.089-.458.418.418,0,0,0-.39-.2c-.314,0-.5.266-.559.8l-.479-.058a1.172,1.172,0,0,1,.369-.951.994.994,0,0,1,.663-.228.906.906,0,0,1,.751.354,1.166,1.166,0,0,1,.251.744,1.014,1.014,0,0,1-.173.571.772.772,0,0,1-.409.335.891.891,0,0,1,.486.375,1.12,1.12,0,0,1,.213.663,1.377,1.377,0,0,1-.288.884,1.044,1.044,0,0,1-.862.4.883.883,0,0,1-.711-.361A1.859,1.859,0,0,1,333.184,211.825Zm-3.308.39v-1.488a3.36,3.36,0,0,0-.81.537,1.164,1.164,0,0,0-.456.825.652.652,0,0,0,.14.468.518.518,0,0,0,.39.144.83.83,0,0,0,.438-.129A.7.7,0,0,0,329.875,212.215Zm.516-2.247v3.116h-.516V212.7a1.007,1.007,0,0,1-.361.328.923.923,0,0,1-.442.114,1,1,0,0,1-.693-.258.943.943,0,0,1-.317-.729,1.422,1.422,0,0,1,.671-1.222q.567-.354,1.141-.708,0-.972-.574-.972a.57.57,0,0,0-.446.235.905.905,0,0,0-.2.6l-.486-.081a1.426,1.426,0,0,1,.38-.858,1.033,1.033,0,0,1,.776-.336.989.989,0,0,1,.755.329A1.163,1.163,0,0,1,330.391,209.968Zm-7.735-2.8h.552v3.047l1.627-3.047h.575l-1.155,2.072,1.28,3.843h-.581l-1.019-3.267-.728,1.329v1.938h-.552Zm-4.907,5.916h-.273v-.648h.552v.648a1.154,1.154,0,0,1-.207.706.456.456,0,0,1-.346.228v-.294c.074,0,.137-.052.192-.157A1.112,1.112,0,0,0,317.75,213.085Zm-5.474,0V208.87h.516v1.739h1.267V208.87h.516v4.214h-.516v-2.033h-1.267v2.033Zm-3.4-.87v-1.488a3.336,3.336,0,0,0-.81.537,1.166,1.166,0,0,0-.458.825.652.652,0,0,0,.14.468.52.52,0,0,0,.39.144.825.825,0,0,0,.438-.129A.711.711,0,0,0,308.88,212.215Zm.516-2.247v3.116h-.516V212.7a1.01,1.01,0,0,1-.362.328.92.92,0,0,1-.442.114,1,1,0,0,1-.693-.258.943.943,0,0,1-.317-.729,1.422,1.422,0,0,1,.671-1.222q.567-.354,1.142-.708,0-.972-.575-.972a.568.568,0,0,0-.445.235.9.9,0,0,0-.2.6l-.486-.081a1.432,1.432,0,0,1,.379-.858,1.034,1.034,0,0,1,.777-.336.991.991,0,0,1,.755.329A1.168,1.168,0,0,1,309.4,209.968Zm-5.6-.656v3.773h-.516v-3.773H302.5v-.442h2.077v.442Zm-3.823.678-.479.059a1.436,1.436,0,0,0-.159-.633.457.457,0,0,0-.4-.162q-.317,0-.5.435a3.291,3.291,0,0,0-.187,1.26,3.857,3.857,0,0,0,.172,1.267q.173.486.534.486a.517.517,0,0,0,.486-.28,1.362,1.362,0,0,0,.132-.663l.479.058a1.5,1.5,0,0,1-.28.892.943.943,0,0,1-.8.434,1.011,1.011,0,0,1-.972-.655,4.74,4.74,0,0,1,.008-3.021,1.03,1.03,0,0,1,.987-.656.923.923,0,0,1,.633.228A1.214,1.214,0,0,1,299.973,209.99Zm-6.947,2.189q.279.522.589.523.428,0,.626-.545a3.561,3.561,0,0,0,.162-1.186,4.045,4.045,0,0,0-.132-1.164c-.119-.369-.3-.552-.553-.552a.622.622,0,0,0-.346.136,1.26,1.26,0,0,0-.346.4Zm-.516-3.308h.516v.383a1.587,1.587,0,0,1,.367-.317.83.83,0,0,1,.435-.126q.582,0,.884.722a3.814,3.814,0,0,1,.243,1.451,3.545,3.545,0,0,1-.273,1.473.976.976,0,0,1-.876.685.861.861,0,0,1-.438-.121,1.014,1.014,0,0,1-.342-.321v1.842h-.516Zm-3.4,3.345v-1.488a3.358,3.358,0,0,0-.81.537,1.164,1.164,0,0,0-.456.825.651.651,0,0,0,.14.468.517.517,0,0,0,.39.144.831.831,0,0,0,.438-.129A.7.7,0,0,0,289.113,212.215Zm.516-2.247v3.116h-.516V212.7a1.007,1.007,0,0,1-.361.328.923.923,0,0,1-.442.114,1,1,0,0,1-.693-.258.942.942,0,0,1-.317-.729,1.422,1.422,0,0,1,.671-1.222q.567-.354,1.141-.708,0-.972-.574-.972a.568.568,0,0,0-.446.235.905.905,0,0,0-.2.6l-.486-.081a1.426,1.426,0,0,1,.38-.858,1.033,1.033,0,0,1,.776-.336.989.989,0,0,1,.755.329A1.163,1.163,0,0,1,289.629,209.968Zm-5.6-.656v3.773h-.516v-3.773h-.781v-.442h2.077v.442Zm-4.5,2.9v-1.488a3.36,3.36,0,0,0-.81.537,1.164,1.164,0,0,0-.456.825.652.652,0,0,0,.139.468.52.52,0,0,0,.39.144.825.825,0,0,0,.438-.129A.711.711,0,0,0,279.529,212.215Zm.516-2.247v3.116h-.516V212.7a1.016,1.016,0,0,1-.361.328.925.925,0,0,1-.443.114.994.994,0,0,1-.692-.258.939.939,0,0,1-.317-.729,1.424,1.424,0,0,1,.67-1.222q.568-.354,1.142-.708,0-.972-.575-.972a.568.568,0,0,0-.445.235.905.905,0,0,0-.2.6l-.486-.081a1.432,1.432,0,0,1,.379-.858,1.034,1.034,0,0,1,.777-.336.991.991,0,0,1,.755.329A1.163,1.163,0,0,1,280.045,209.968Zm-7.463-2.8h2.865v.478H274.3v5.437h-.552v-5.437h-1.164Z" transform="translate(-90.056 -150.526)" fill="#613833"/>
  </g>
</svg>
